<svg xmlns="http://www.w3.org/2000/svg" width="954" height="671.88" viewBox="0 0 954 671.88">
  <g id="Prisha" transform="translate(-37 -259)">
    <g id="undraw_social_expert_07r8" transform="translate(37 259)">
      <path id="Path_1" data-name="Path 1" d="M994.726,620.444,882.764,650.713l83.254-38.852c-28.269-6.974-60.286-10.877-94.048-10.747-10.262.04-20.342.442-30.188,1.182a619.225,619.225,0,0,1-82.936.649L532.567,650.713l181.2-52.215c-31.493-4.393-61.415-11.382-88.276-20.924q-7.512-2.668-15.363-5.124L246.97,689.658S398.6,607.591,503.3,551.207a652.383,652.383,0,0,0-65.543-3.267C263.922,547.94,123,615.2,123,698.167c0,32.767,21.984,63.082,59.291,87.773H960.519c68.85-15.55,116.481-49,116.481-87.773C1077,666.52,1044.49,638.208,994.726,620.444Z" transform="translate(-123 -114.06)" fill="#f0f0f0"/>
      <path id="Path_2" data-name="Path 2" d="M875,667.137c20.093,60.471,13.036,117.249,13.036,117.249S848.4,743.122,828.31,682.651,815.273,565.4,815.273,565.4,854.907,606.667,875,667.137Z" transform="translate(-123 -114.06)" fill="#79797e"/>
      <path id="Path_3" data-name="Path 3" d="M901.072,667.137c-20.093,60.471-13.036,117.249-13.036,117.249s39.634-41.264,59.726-101.735S960.8,565.4,960.8,565.4,921.165,606.667,901.072,667.137Z" transform="translate(-123 -114.06)" fill="#79797e"/>
      <path id="Path_4" data-name="Path 4" d="M909.165,667.791c1.347,63.707-22.156,115.872-22.156,115.872s-25.686-51.125-27.033-114.832,22.156-115.872,22.156-115.872S907.818,604.084,909.165,667.791Z" transform="translate(-123 -114.06)" fill="#3e3e56"/>
      <path id="Path_29" data-name="Path 29" d="M6.237,0A6.237,6.237,0,1,1,0,6.237,6.237,6.237,0,0,1,6.237,0Z" transform="translate(755.333 491.191)" fill="#7b7a7e"/>
      <circle id="Ellipse_2" data-name="Ellipse 2" cx="3.465" cy="3.465" r="3.465" transform="translate(745.979 543.856)" fill="#7b7a7e"/>
      <circle id="Ellipse_3" data-name="Ellipse 3" cx="3.465" cy="3.465" r="3.465" transform="translate(703.708 509.555)" fill="#3f3d56"/>
      <circle id="Ellipse_4" data-name="Ellipse 4" cx="3.465" cy="3.465" r="3.465" transform="translate(826.015 475.946)" fill="#3f3d56"/>
      <circle id="Ellipse_5" data-name="Ellipse 5" cx="3.465" cy="3.465" r="3.465" transform="translate(721.725 542.124)" fill="#3f3d56"/>
      <circle id="Ellipse_6" data-name="Ellipse 6" cx="3.465" cy="3.465" r="3.465" transform="translate(794.486 522.028)" fill="#3f3d56"/>
      <circle id="Ellipse_7" data-name="Ellipse 7" cx="3.465" cy="3.465" r="3.465" transform="translate(723.804 593.056)" fill="#3f3d56"/>
      <circle id="Ellipse_8" data-name="Ellipse 8" cx="3.465" cy="3.465" r="3.465" transform="translate(797.951 573.307)" fill="#3f3d56"/>
      <circle id="Ellipse_9" data-name="Ellipse 9" cx="3.465" cy="3.465" r="3.465" transform="translate(764.342 576.772)" fill="#7b7a7e"/>
      <rect id="Rectangle_1" data-name="Rectangle 1" width="897" height="2" transform="translate(26 667.88)" fill="#2f2e41"/>
      <path id="Path_5" data-name="Path 5" d="M447.3,90.88h0a37.776,37.776,0,0,1,37.776,37.776V175.18H409.523V128.656A37.776,37.776,0,0,1,447.3,90.88Z" fill="#e9eada"/>
      <path id="Path_6" data-name="Path 6" d="M497.53,314.689S458.959,302.362,452.6,313.5s-1.591,27.835,0,34.2,13.52,81.119,45.331,61.237S497.53,314.689,497.53,314.689Z" transform="translate(-123 -114.06)" fill="#3f3d56"/>
      <path id="Path_7" data-name="Path 7" d="M497.53,314.689S458.959,302.362,452.6,313.5s-1.591,27.835,0,34.2,13.52,81.119,45.331,61.237S497.53,314.689,497.53,314.689Z" transform="translate(-123 -114.06)" fill="#3e3e55" opacity="0.1"/>
      <path id="Path_8" data-name="Path 8" d="M489.975,340.535H457.369s-16.933-7.956-7.273-20.281,45.447-1.192,45.447-1.192Z" transform="translate(-123 -114.06)" fill="#ffbcb4"/>
      <path id="Path_9" data-name="Path 9" d="M688,402.567l31.811,31.811s26.244-3.181,31.811,6.362-38.174,10.339-38.174,10.339l-45.331-45.331Z" transform="translate(-123 -114.06)" fill="#ffbfb6"/>
      <path id="Path_10" data-name="Path 10" d="M503.495,491.639l-6.362,60.441s2.386,34.2-11.929,54.875-27.04,102.591-27.04,102.591-16.7,38.969-1.591,41.355,15.11-25.449,15.11-25.449l8.748-31.016s22.268-40.559,30.221-69.19c0,0,24.654-36.583,24.654-54.079s9.544-79.528,9.544-79.528Z" transform="translate(-123 -114.06)" fill="#ffbcb4"/>
      <path id="Path_11" data-name="Path 11" d="M552.8,500.387l14.315,73.961s.8,29.425,3.976,41.355c0,0,1.591,42.945,7.158,60.441s9.543,43.74,9.543,43.74l-3.976,7.158,3.976,25.449,9.543,14.315,10.339-8.748-2.385-49.307s4.772-73.166-1.591-89.072l-3.976-91.457-.8-27.835Z" transform="translate(-123 -114.06)" fill="#ffbcb4"/>
      <path id="Path_12" data-name="Path 12" d="M528.149,322.244l-28.63,179.734s38.173-3.976,50.1,5.567,54.079,3.976,54.079,3.976l2.115-165.313-14.044-31.917-48.512-3.976Z" transform="translate(-123 -114.06)" fill="#7a7a7c"/>
      <path id="Path_13" data-name="Path 13" d="M552.007,262.6s3.976,36.583,0,40.559,42.945,0,42.945,0-12.724-38.173-11.134-42.945S552.007,262.6,552.007,262.6Z" transform="translate(-123 -114.06)" fill="#ffb6b6"/>
      <path id="Path_14" data-name="Path 14" d="M552.007,262.6s3.976,36.583,0,40.559,42.945,0,42.945,0-12.724-38.173-11.134-42.945S552.007,262.6,552.007,262.6Z" transform="translate(-123 -114.06)" opacity="0.1"/>
      <path id="Path_15" data-name="Path 15" d="M570.3,290.433l-18.292-8.748s-9.543-3.181-9.543,1.591-6.362,5.567-3.976,10.339,18.292,21.473,76.347,16.7c0,0,11.929-3.976,25.449,5.567,0,0-7.158-18.292-41.355-41.355Z" transform="translate(-123 -114.06)" fill="#3e3e55"/>
      <path id="Path_16" data-name="Path 16" d="M542.464,289.637s-9.543,7.158-9.543,8.748-41.355,119.293-41.355,119.293-76.347,79.528-69.985,85.89,8.748,11.134,18.292,12.724c0,0,21.473,35.788,73.961,30.221l38.174-190.072,14.315-31.016s-3.976,130.426,7.158,130.426h14.315s1.591,99.41,10.339,99.41,17.5-3.181,16.7-7.158-2.386-44.536-2.386-44.536,22.268,11.929,22.268,4.772-7.953-65.213-7.953-65.213l-4.772-138.379L603.7,292.023Z" transform="translate(-123 -114.06)" fill="#3e3e55"/>
      <path id="Path_17" data-name="Path 17" d="M536.9,299.181h-3.976a32.19,32.19,0,0,0-15.906,3.181l-55.67,7.158s16.7,1.591,19.882,20.677,6.362,31.016,7.953,31.811-8.748,59.646,9.543,67.6,31.016-6.362,35.788-27.835,21.473-93.843,21.473-93.843Z" transform="translate(-123 -114.06)" fill="#3e3e55"/>
      <path id="Path_18" data-name="Path 18" d="M625.969,303.157l15.906,12.724s.8,10.339,10.339,19.087,46.126,72.371,44.536,73.961-57.26,5.567-54.079,23.063-19.882,16.7-19.882,16.7L602.11,323.835Z" transform="translate(-123 -114.06)" fill="#3e3e55"/>
      <path id="Path_19" data-name="Path 19" d="M456.021,340.287l-52.775-51.644s-41.985-12.344-34.455-21.458,45.732,7.389,45.732,7.389l48.862,39.884-4.465,24.9a1.722,1.722,0,0,1-2.9.927Z" transform="translate(-123 -114.06)" fill="#ffbcb4"/>
      <path id="Path_20" data-name="Path 20" d="M450.211,716.7l-10.339,35.788s-8.748,28.063,10.339,30.449,15.11-13.52,15.11-13.52l2.445-25.089s-14.825,11.814-15.965-3.769a56.5,56.5,0,0,1,5.965-29.028Z" transform="translate(-123 -114.06)" fill="#2f2e41"/>
      <path id="Path_21" data-name="Path 21" d="M590.181,777.941,587.8,766.807h-4.772l-3.976-3.976s4.772-17.5,1.591-25.449-1.591-16.7,7.158-17.5c0,0-5.567,23.859,7.953,36.583,0,0,12.419,7.209,11.776-1.565l.153-9.923,3.181,13.078s2.386,12.724,6.362,15.906,1.591,10.339-9.543,8.748S590.181,777.941,590.181,777.941Z" transform="translate(-123 -114.06)" fill="#2f2e41"/>
      <circle id="Ellipse_10" data-name="Ellipse 10" cx="2.386" cy="2.386" r="2.386" transform="translate(441.334 204.605)" fill="#2f2e41"/>
      <circle id="Ellipse_11" data-name="Ellipse 11" cx="27.835" cy="27.835" r="27.835" transform="translate(419.066 103.604)" fill="#ffbdb6"/>
      <path id="Path_22" data-name="Path 22" d="M539.68,247.09l21.473-26.245s23.859,28.63,40.559,27.835l3.181-16.7-15.906-15.906L569.106,211.3l-19.087,3.976-15.711,15.933Z" transform="translate(-123 -114.06)" fill="#e9eada"/>
      <path id="Path_23" data-name="Path 23" d="M733.231,210.942a21.83,21.83,0,0,0-8.76,41.824,19.327,19.327,0,0,1,.38-5.009c.419-1.774,2.807-11.9,2.807-11.9a8.335,8.335,0,0,1-.7-3.45c0-3.235,1.871-5.652,4.21-5.652,1.988,0,2.943,1.491,2.943,3.274,0,2-1.277,4.98-1.929,7.747a3.375,3.375,0,0,0,3.45,4.2c4.132,0,6.919-5.311,6.919-11.606,0-4.785-3.225-8.361-9.082-8.361a10.343,10.343,0,0,0-10.748,10.456,6.292,6.292,0,0,0,1.442,4.278,1.067,1.067,0,0,1,.312,1.218c-.107.4-.341,1.364-.448,1.754a.75.75,0,0,1-1.091.546c-3.05-1.247-4.473-4.58-4.473-8.341,0-6.2,5.233-13.633,15.6-13.633,8.332,0,13.818,6.032,13.818,12.5,0,8.566-4.765,14.958-11.781,14.958a6.264,6.264,0,0,1-5.33-2.719s-1.267,5.028-1.54,6a18.142,18.142,0,0,1-2.193,4.677,21.832,21.832,0,1,0,6.2-42.769Z" transform="translate(-123 -114.06)" fill="#d0d3bd"/>
      <path id="Path_24" data-name="Path 24" d="M351.143,118.494a19.075,19.075,0,0,1-5.418,1.491,9.467,9.467,0,0,0,4.151-5.223,18.747,18.747,0,0,1-5.993,2.29,9.432,9.432,0,0,0-16.322,6.451,9.238,9.238,0,0,0,.244,2.154,26.737,26.737,0,0,1-19.451-9.871,9.453,9.453,0,0,0,2.933,12.61,9.215,9.215,0,0,1-4.287-1.18v.117a9.443,9.443,0,0,0,7.574,9.258,9.5,9.5,0,0,1-2.487.331,8.9,8.9,0,0,1-1.774-.175,9.449,9.449,0,0,0,8.819,6.558,18.916,18.916,0,0,1-11.723,4.044,19.122,19.122,0,0,1-2.251-.136,26.371,26.371,0,0,0,14.442,4.268c17.375,0,26.866-14.393,26.866-26.876,0-.409-.01-.819-.029-1.218A19.2,19.2,0,0,0,351.143,118.494Z" transform="translate(-123 -114.06)" fill="#d0d3bd"/>
      <path id="Path_25" data-name="Path 25" d="M753.665,362.06H720.377a2.067,2.067,0,0,0-2.066,2.066v33.288a2.067,2.067,0,0,0,2.066,2.066h16.644V384.668h-4.473v-5.457h4.473v-4.034c0-4.833,3.352-7.464,7.669-7.464,2.066,0,4.288.156,4.8.224v5.048h-3.439c-2.348,0-2.8,1.111-2.8,2.748v3.479h5.593l-.731,5.457h-4.863V399.48h10.407a2.067,2.067,0,0,0,2.066-2.066V364.126a2.067,2.067,0,0,0-2.067-2.066Z" transform="translate(-123 -114.06)" fill="#d0d3bd"/>
      <path id="Path_26" data-name="Path 26" d="M395.2,208.081a7.819,7.819,0,0,1,7.8,7.8v15.591a7.819,7.819,0,0,1-7.8,7.8H379.605a7.819,7.819,0,0,1-7.8-7.8V215.877a7.819,7.819,0,0,1,7.8-7.8H395.2m0-3.118H379.605a10.946,10.946,0,0,0-10.914,10.914v15.591a10.946,10.946,0,0,0,10.914,10.914H395.2a10.946,10.946,0,0,0,10.914-10.914V215.877A10.946,10.946,0,0,0,395.2,204.963Z" transform="translate(-123 -114.06)" fill="#d0d3bd"/>
      <path id="Path_27" data-name="Path 27" d="M397.535,215.877a2.333,2.333,0,1,1,1.655-.683A2.339,2.339,0,0,1,397.535,215.877ZM387.4,217.436a6.237,6.237,0,1,1-6.237,6.237,6.237,6.237,0,0,1,6.237-6.237m0-3.118a9.355,9.355,0,1,0,9.355,9.355,9.355,9.355,0,0,0-9.355-9.355Z" transform="translate(-123 -114.06)" fill="#d0d3bd"/>
      <path id="Path_28" data-name="Path 28" d="M829.8,284.963H798.577a3.052,3.052,0,0,0-3.2,2.914v31.29a3.292,3.292,0,0,0,3.2,3.206h31.212a3.125,3.125,0,0,0,3-3.206v-31.29a2.869,2.869,0,0,0-2.992-2.914Zm-22.822,31.183h-5.36V299.482h5.36Zm-2.495-19.2h-.039a2.914,2.914,0,1,1,.039,0Zm22.081,19.2H821.2v-9.111c0-2.183-.78-3.674-2.719-3.674a2.932,2.932,0,0,0-2.748,1.978,3.608,3.608,0,0,0-.185,1.316v9.491h-5.36V299.482h5.36V301.8a5.425,5.425,0,0,1,4.833-2.709c3.518,0,6.178,2.319,6.178,7.318Z" transform="translate(-123 -114.06)" fill="#d0d3bd"/>
    </g>
  </g>
</svg>